<svg id="レイヤー_1" data-name="レイヤー 1" xmlns="http://www.w3.org/2000/svg" viewBox="0 0 390.35 82.75"><defs><style>.cls-1{fill:#f2efef;}</style></defs><path class="cls-1" d="M56.62,36.55c-1.8-8.65-6.84-12.92-15-12.92-11.59,0-18.33,9.12-18.33,24.79,0,15.49,7,24.89,18.81,24.89a15,15,0,0,0,12.44-6c1.62-2.28,2.28-4.18,2.85-8.17L77.14,62.1c-1.8,8.08-3.89,12.73-7.88,17.39-5.89,6.74-15.11,10.35-26.6,10.35S21.28,86.23,14.54,79.39c-7-7.12-11-18.24-11-31,0-12.92,4-23.84,11.49-31.25,6.56-6.37,16.15-9.88,27.27-9.88,12.25,0,21.85,4.18,28,12.44a29.31,29.31,0,0,1,5.89,13Z" transform="translate(-3.52 -7.1)"/><path class="cls-1" d="M106.87,88c-6.55,0-10.45.09-14.06.28a85.22,85.22,0,0,0,.76-13.87V24.29A115,115,0,0,0,92.81,9h20.71a94.76,94.76,0,0,0-.76,15V71.13h23c8.08,0,11.31-.1,15.77-.67V88.7A124.92,124.92,0,0,0,135.75,88Z" transform="translate(-3.52 -7.1)"/><path class="cls-1" d="M238.92,48.14c0,25.08-15.29,41.7-38.38,41.7-23.27,0-38.28-16.24-38.28-41.42s15-41.13,38.38-41.13S238.92,23.25,238.92,48.14Zm-19.76.19c0-15.39-7-24.7-18.52-24.7s-18.72,9.4-18.72,24.7c0,15.48,7.13,25.08,18.72,25.08S219.16,63.91,219.16,48.33Z" transform="translate(-3.52 -7.1)"/><path class="cls-1" d="M272.46,62.29c.38,3.42,1,5.13,2.47,7,2.28,2.85,6.27,4.47,11.11,4.47,7.32,0,11.69-3.23,11.69-8.55a7.14,7.14,0,0,0-4-6.65c-2-1-4.37-1.62-14.25-3.9-8.74-1.9-11.78-3-15.3-5.51C258.21,45,255,38.64,255,30.94,255,16.31,266.76,7.1,285.47,7.1c12.07,0,21.28,3.7,26.41,10.83,2.38,3.13,3.52,6,4.75,11.4l-20.14,2.18c-1.14-6.17-4.56-8.74-11.78-8.74-5.79,0-10.07,3.14-10.07,7.51,0,2.66,1.43,4.65,4.47,6.08,1.9.85,1.9.85,13.11,3.13,7.22,1.52,11.78,3.14,15.39,5.42,6.84,4.27,10.26,10.64,10.26,19.38,0,7.12-2.28,13.2-6.65,17.48-5.51,5.32-13.87,8.07-25,8.07-8.07,0-16.05-1.71-21.18-4.65A22.45,22.45,0,0,1,254.79,73c-.95-2.28-1.43-4.47-2.09-8.84Z" transform="translate(-3.52 -7.1)"/><path class="cls-1" d="M393.87,88.7A123.36,123.36,0,0,0,378.19,88H348.27c-7.23,0-9.88.09-14,.28a87.52,87.52,0,0,0,.76-13.87V22.58a100.76,100.76,0,0,0-.76-13.87c3.9.19,6.56.29,14,.29h30.3a115.64,115.64,0,0,0,14.16-.67V26.1a115.54,115.54,0,0,0-14.16-.67h-24.7v14h20.52a113.81,113.81,0,0,0,14.25-.67V56.31a116.06,116.06,0,0,0-14.25-.67H353.87v16h24.51a130,130,0,0,0,15.49-.66Z" transform="translate(-3.52 -7.1)"/></svg>