<svg id="レイヤー_1" data-name="レイヤー 1" xmlns="http://www.w3.org/2000/svg" viewBox="0 0 379.21 90.34"><defs><style>.cls-1{fill:#f2efef;}</style></defs><path class="cls-1" d="M47.8,93.35c-.53-3.68-1.68-7.57-4.52-15.56l-9.68-28c-.1-.52-3.26-10.3-3.57-11.14-1.16-3.79-1.16-3.79-1.69-5.26C29,40,29.4,48.66,29.4,54.23V77.05a112.69,112.69,0,0,0,.84,16.3H9.52a116.55,116.55,0,0,0,.84-16.3V22.26a144,144,0,0,0-.84-16.4H37.28a78,78,0,0,0,4,14.82L57.05,66,72.72,20.68c2.42-7,3.26-10.41,3.89-14.82h27.87a122,122,0,0,0-.84,16.4V77.05c0,8,.21,12.1.84,16.3H83.77a114.56,114.56,0,0,0,.84-16.3V54.13c0-2.53.31-10.41.52-13.67.32-5.58.32-5.58.42-7.16-2.31,8.21-3.36,12-4.73,15.78L70.62,77.89C68,85.36,66.62,90,66.1,93.35Z" transform="translate(-9.52 -5.12)"/><path class="cls-1" d="M190.93,94.09a134.29,134.29,0,0,0-17.36-.74H140.45c-8,0-10.94.11-15.46.32a97.16,97.16,0,0,0,.84-15.36V20.9A111.72,111.72,0,0,0,125,5.54c4.31.21,7.25.32,15.46.32H174a128.06,128.06,0,0,0,15.67-.74V24.79A128.06,128.06,0,0,0,174,24.05H146.65V39.51h22.72a126.12,126.12,0,0,0,15.77-.74V58.23a128.87,128.87,0,0,0-15.77-.74H146.65V75.16h27.13a141.5,141.5,0,0,0,17.15-.74Z" transform="translate(-9.52 -5.12)"/><path class="cls-1" d="M259.28,48.87a141.15,141.15,0,0,1,7.57,12.51c-.42-4.84-.63-9.67-.63-15.56v-24a114.41,114.41,0,0,0-.84-16h22.4a114.5,114.5,0,0,0-.84,16V77.68a127.86,127.86,0,0,0,.84,15.67h-23A114.53,114.53,0,0,0,256.86,80L237.4,50.66a128.09,128.09,0,0,1-7.57-12.94,149.41,149.41,0,0,1,.74,15.67V77a115.3,115.3,0,0,0,.84,16.4H209c.63-4.1.84-8.73.84-16.51V21.53A117.48,117.48,0,0,0,209,5.86h22.82c1,2.84,3.37,7,7.47,13.14Z" transform="translate(-9.52 -5.12)"/><path class="cls-1" d="M388.73,5.86a104.59,104.59,0,0,0-.84,15.88V57.91c0,24-14.41,37.55-39.75,37.55-13,0-23.66-3.68-30-10.31-6.1-6.52-9.26-15.67-9.26-27.45v-36a102.84,102.84,0,0,0-.84-15.88h22.72C330.16,9.75,330,14,330,21.74V57.91c0,13.25,6,19.56,18.3,19.56,12.61,0,18.61-6.31,18.61-19.56V21.74A103.75,103.75,0,0,0,366,5.86Z" transform="translate(-9.52 -5.12)"/></svg>